<svg width="25" height="25" viewBox="0 0 25 25" fill="none" xmlns="http://www.w3.org/2000/svg">
<g id="Star">
<path id="Vector" d="M11.5093 3.84477C11.8212 2.88508 13.1789 2.88507 13.4907 3.84477L15.0726 8.71328C15.212 9.14247 15.612 9.43305 16.0633 9.43305H21.1823C22.1914 9.43305 22.6109 10.7243 21.7946 11.3174L17.6532 14.3263C17.2881 14.5916 17.1353 15.0618 17.2748 15.491L18.8566 20.3595C19.1685 21.3192 18.0701 22.1172 17.2537 21.5241L13.1123 18.5152C12.7472 18.2499 12.2528 18.2499 11.8877 18.5152L7.74634 21.5241C6.92997 22.1172 5.83156 21.3192 6.14338 20.3595L7.72525 15.491C7.8647 15.0618 7.71194 14.5916 7.34684 14.3263L3.20545 11.3174C2.38908 10.7243 2.80864 9.43305 3.81773 9.43305H8.93677C9.38805 9.43305 9.788 9.14247 9.92746 8.71328L11.5093 3.84477Z" fill="#D8DBDF"/>
</g>
</svg>
